# File created by Blade
# Date/Time:  Tue Sep 30 19:36:22 2014
#---------------------------------------------------------
:version 1.10
:name HOM
:units
  mass 1.0
  length 1.000000
  angle deg
:documentation
     Acclaim Skeleton File
:root
   axis xyz
   order TX TY TZ RX RY RZ
   position 0.000000 0.000000 0.000000
   orientation 0 0 0
:bonedata
   begin
      id 1
      name Spine_dum
      direction 0.000000 1.000000 0.000000
      length 3.241213
      axis 0.0 0.0 0.0 xyz
   end
   begin
      id 2
      name LeftUpLeg_dum
      direction 1.000000 0.000000 0.000000
      length 3.434019
      axis 0.0 0.0 0.0 xyz
   end
   begin
      id 3
      name RightUpLeg_dum
      direction -1.000000 0.000000 0.000000
      length 3.434019
      axis 0.0 0.0 0.0 xyz
   end
   begin
      id 4
      name Spine
      direction 0.000000 1.000000 0.000000
      length 0.000000
      axis 0.0 0.0 0.0 xyz
      dof rx ry rz
   end
   begin
      id 5
      name Spine_dum1
      direction 0.000000 1.000000 0.000000
      length 18.382958
      axis 0.0 0.0 0.0 xyz
   end
   begin
      id 6
      name Spine_dum2
      direction 0.000000 1.000000 0.000000
      length 12.828261
      axis 0.0 0.0 0.0 xyz
   end
   begin
      id 7
      name Spine_dum3
      direction 0.000000 1.000000 0.000000
      length 12.828261
      axis 0.0 0.0 0.0 xyz
   end
   begin
      id 8
      name Head
      direction 0.000000 1.000000 0.000000
      length 4.527550
      axis 0.0 0.0 0.0 xyz
      dof rx ry rz
   end
   begin
      id 9
      name LeftShoulder
      direction 1.000000 0.000000 0.000000
      length 7.748055
      axis 0.0 0.0 -90.0 xyz
      dof rx ry rz
   end
   begin
      id 10
      name LeftArm
      direction 1.000000 0.000000 0.000000
      length 10.635614
      axis 0.0 0.0 -90.0 xyz
      dof rx ry rz
   end
   begin
      id 11
      name LeftForeArm
      direction 1.000000 0.000000 0.000000
      length 8.346755
      axis 0.0 0.0 -90.0 xyz
      dof ry rz rx
   end
   begin
      id 12
      name LeftHand
      direction 0.000000 0.000000 0.000000
      length 0.000000
      axis 0.0 0.0 -90.0 xyz
      dof rx ry rz
   end
   begin
      id 13
      name LeftHand_dum1
      direction 0.000000 0.000000 0.000000
      length 0.000000
      axis 0.0 0.0 -90.0 xyz
   end
   begin
      id 14
      name LeftHand_dum2
      direction 1.000000 0.000000 0.000000
      length 3.937000
      axis 0.0 0.0 -90.0 xyz
   end
   begin
      id 15
      name LeftHandThumb1
      direction 0.000000 0.000000 1.000000
      length 3.937000
      axis 0.0 0.0 -90.0 xyz
      dof rx rz ry
   end
   begin
      id 16
      name RightShoulder
      direction -1.000000 0.000000 0.000000
      length 7.748055
      axis 0.0 0.0 90.0 xyz
      dof rx ry rz
   end
   begin
      id 17
      name RightArm
      direction -1.000000 0.000000 0.000000
      length 10.635614
      axis 0.0 0.0 90.0 xyz
      dof rx ry rz
   end
   begin
      id 18
      name RightForeArm
      direction -1.000000 0.000000 0.000000
      length 8.346755
      axis 0.0 0.0 90.0 xyz
      dof ry rz rx
   end
   begin
      id 19
      name RightHand
      direction 0.000000 0.000000 0.000000
      length 0.000000
      axis 0.0 0.0 90.0 xyz
      dof rx ry rz
   end
   begin
      id 20
      name RightHand_dum1
      direction 0.000000 0.000000 0.000000
      length 0.000000
      axis 0.0 0.0 90.0 xyz
   end
   begin
      id 21
      name RightHand_dum2
      direction -1.000000 0.000000 0.000000
      length 3.937000
      axis 0.0 0.0 90.0 xyz
   end
   begin
      id 22
      name RightHandThumb1
      direction 0.000000 0.000000 1.000000
      length 3.937000
      axis 0.0 0.0 90.0 xyz
      dof rx rz ry
   end
   begin
      id 23
      name LeftUpLeg
      direction 0.000000 -1.000000 0.000000
      length 15.713025
      axis 0.0 0.0 0.0 xyz
      dof rx ry rz
   end
   begin
      id 24
      name LeftLeg
      direction 0.000000 -1.000000 0.000000
      length 14.435119
      axis 0.0 0.0 0.0 xyz
      dof rx ry rz
   end
   begin
      id 25
      name LeftFoot
      direction 0.000000 -0.258819 0.965926
      length 4.938895
      axis 15.0 0.0 0.0 xyz
      dof rx ry rz
   end
   begin
      id 26
      name LeftToeBase
      direction 0.000000 0.000000 1.000000
      length 2.952750
      axis 0.0 0.0 0.0 xyz
      dof rx ry rz
   end
   begin
      id 27
      name RightUpLeg
      direction 0.000000 -1.000000 0.000000
      length 15.713025
      axis 0.0 0.0 0.0 xyz
      dof rx ry rz
   end
   begin
      id 28
      name RightLeg
      direction 0.000000 -1.000000 0.000000
      length 14.435119
      axis 0.0 0.0 0.0 xyz
      dof rx ry rz
   end
   begin
      id 29
      name RightFoot
      direction 0.000000 -0.258819 0.965926
      length 4.938895
      axis 15.0 0.0 0.0 xyz
      dof rx ry rz
   end
   begin
      id 30
      name RightToeBase
      direction 0.000000 0.000000 1.000000
      length 2.952750
      axis 0.0 0.0 0.0 xyz
      dof rx ry rz
   end
:hierarchy
   begin
      root Spine_dum LeftUpLeg_dum RightUpLeg_dum
      Spine_dum Spine
      LeftUpLeg_dum LeftUpLeg
      RightUpLeg_dum RightUpLeg
      Spine Spine_dum1 Spine_dum2 Spine_dum3
      Spine_dum1 Head
      Spine_dum2 LeftShoulder
      Spine_dum3 RightShoulder
      LeftShoulder LeftArm
      LeftArm LeftForeArm
      LeftForeArm LeftHand
      LeftHand LeftHand_dum1 LeftHand_dum2
      LeftHand_dum1 LeftHandThumb1
      RightShoulder RightArm
      RightArm RightForeArm
      RightForeArm RightHand
      RightHand RightHand_dum1 RightHand_dum2
      RightHand_dum1 RightHandThumb1
      LeftUpLeg LeftLeg
      LeftLeg LeftFoot
      LeftFoot LeftToeBase
      RightUpLeg RightLeg
      RightLeg RightFoot
      RightFoot RightToeBase
   end

# File created by Blade
# Date/Time:  Tue Sep 23 19:18:47 2014
# Frame Rate: 120.000 fps
#------------------------------------------------------
:FULLY-SPECIFIED
:DEGREES
71
root -0.534555 32.349695 1.790722 37.392357 4.282005 0.555204
Spine -39.969238 -8.978210 2.312497
Head 3.246163 -3.782936 -0.307053
LeftShoulder -14.219827 38.446951 17.780681
LeftArm 68.123791 -13.189930 -78.816680
LeftForeArm -5.096327 -0.000000 75.167442
LeftHand -55.532431 -0.000000 14.612299
LeftHandThumb1 -26.253704 0.000000 33.147579
RightShoulder -16.560530 -47.808466 -14.334922
RightArm 51.003537 9.192416 73.154322
RightForeArm 24.268366 0.000000 5.647643
RightHand 16.657095 0.000000 -4.794103
RightHandThumb1 -24.326973 -0.000000 -32.862282
LeftUpLeg -32.694381 -2.544274 1.432203
LeftLeg -0.258092 -0.000000 0.000000
LeftFoot -5.304477 2.033971 1.203252
LeftToeBase 1.782035 -0.000000 -0.000000
RightUpLeg -29.464937 -11.545956 1.882586
RightLeg -5.429272 -0.000000 0.000000
RightFoot -5.972665 -4.415528 17.009651
RightToeBase 12.835794 -0.000000 -0.000000
72
root -0.497624 32.351757 1.772315 37.451366 4.487606 0.510743
Spine -39.825572 -9.175896 2.400596
Head 2.839476 -3.921839 -0.073053
LeftShoulder -14.168273 38.505464 17.793918
LeftArm 68.277697 -12.650252 -78.602504
LeftForeArm -4.700375 0.000000 75.450835
LeftHand -55.453175 0.000000 14.970404
LeftHandThumb1 -26.253704 0.000000 33.147579
RightShoulder -16.697217 -47.921384 -13.961345
RightArm 50.905804 8.785727 74.169137
RightForeArm 24.497159 0.000000 5.932157
RightHand 16.497089 -0.000000 -4.937152
RightHandThumb1 -24.326973 -0.000000 -32.862282
LeftUpLeg -32.964760 -2.580220 1.441761
LeftLeg 0.061488 -0.000000 -0.000000
LeftFoot -5.400448 1.980218 1.468162
LeftToeBase 1.646170 -0.000000 -0.000000
RightUpLeg -29.553904 -11.760631 2.010858
RightLeg -5.409068 -0.000000 0.000000
RightFoot -5.888569 -4.340364 17.190500
RightToeBase 12.829996 -0.000000 -0.000000
73
root -0.457684 32.356814 1.751238 37.571773 4.608448 0.502912
Spine -39.745902 -9.356001 2.429216
Head 2.452556 -4.028005 0.157921
LeftShoulder -14.066484 38.528076 17.872010
LeftArm 68.321276 -12.145947 -78.427823
LeftForeArm -4.469836 -0.000000 75.765039
LeftHand -55.280189 -0.000000 15.476085
LeftHandThumb1 -26.253704 0.000000 33.147579
RightShoulder -16.799600 -48.025726 -13.622559
RightArm 50.820253 8.342417 75.181813
RightForeArm 24.951433 -0.000000 6.031243
RightHand 16.805575 -0.000000 -4.968238
RightHandThumb1 -24.326973 -0.000000 -32.862282
LeftUpLeg -33.227165 -2.700179 1.437872
LeftLeg 0.253888 -0.000000 -0.000000
LeftFoot -5.449393 2.091603 1.728286
LeftToeBase 1.728949 -0.000000 -0.000000
RightUpLeg -29.762486 -12.015553 2.119623
RightLeg -5.312764 -0.000000 0.000000
RightFoot -5.792691 -4.127620 17.368974
RightToeBase 12.818936 -0.000000 -0.000000
74
root -0.420297 32.360379 1.729754 37.679812 4.690935 0.477180
Spine -39.626489 -9.485867 2.379319
Head 2.035408 -4.171750 0.514485
LeftShoulder -13.925772 38.579201 18.050358
LeftArm 68.461528 -11.621643 -78.418772
LeftForeArm -4.116025 -0.000000 76.062308
LeftHand -55.418995 -0.000000 15.383381
LeftHandThumb1 -26.253704 0.000000 33.147579
RightShoulder -17.019143 -48.131648 -13.126365
RightArm 50.595590 7.542505 75.652891
RightForeArm 26.067739 -0.000000 6.286574
RightHand 16.943370 -0.000000 -5.290422
RightHandThumb1 -24.326973 -0.000000 -32.862282
LeftUpLeg -33.455751 -2.772731 1.447858
LeftLeg 0.392376 -0.000000 -0.000000
LeftFoot -5.440000 2.058871 1.725762
LeftToeBase 1.629975 -0.000000 -0.000000
RightUpLeg -29.935747 -12.147878 2.179153
RightLeg -5.261688 -0.000000 0.000000
RightFoot -5.695098 -4.061199 17.478363
RightToeBase 12.815242 -0.000000 -0.000000
75
root -0.381631 32.365012 1.705992 37.813601 4.763421 0.430706
Spine -39.535674 -9.632600 2.389561
Head 1.624415 -4.278922 0.827309
LeftShoulder -13.833099 38.565858 18.193506
LeftArm 68.490852 -11.098954 -78.213151
LeftForeArm -4.208468 0.000000 76.348011
LeftHand -55.247761 -0.000000 16.151467
LeftHandThumb1 -26.253704 0.000000 33.147579
RightShoulder -17.172707 -48.113329 -12.749882
RightArm 50.359214 6.788026 76.253333
RightForeArm 27.106479 -0.000000 6.304023
RightHand 17.255877 -0.000000 -5.290643
RightHandThumb1 -24.326973 -0.000000 -32.862282
LeftUpLeg -33.716602 -2.875760 1.501190
LeftLeg 0.545640 -0.000000 -0.000000
LeftFoot -5.472462 2.105880 1.765582
LeftToeBase 1.652673 -0.000000 -0.000000
RightUpLeg -30.147319 -12.273157 2.268794
RightLeg -5.212856 -0.000000 0.000000
RightFoot -5.567025 -3.991036 17.589551
RightToeBase 12.750364 -0.000000 -0.000000
76
root -0.341071 32.370291 1.681805 37.951859 4.882299 0.383831
Spine -39.445383 -9.800350 2.415843
Head 1.218052 -4.403802 1.161868
LeftShoulder -13.689998 38.514390 18.360791
LeftArm 68.497921 -10.611873 -78.113540
LeftForeArm -3.784308 -0.000000 76.612059
LeftHand -55.259430 -0.000000 15.933728
LeftHandThumb1 -26.253704 0.000000 33.147579
RightShoulder -17.375414 -48.370195 -12.258059
RightArm 50.372611 6.433150 77.190132
RightForeArm 27.749070 -0.000000 6.401407
RightHand 17.211052 0.000000 -5.219634
RightHandThumb1 -24.326973 -0.000000 -32.862282
LeftUpLeg -33.986825 -3.072087 1.617491
LeftLeg 0.692607 -0.000000 -0.000000
LeftFoot -5.499163 2.215196 1.795233
LeftToeBase 1.707763 -0.000000 -0.000000
RightUpLeg -30.365251 -12.485277 2.412985
RightLeg -5.165066 -0.000000 0.000000
RightFoot -5.395885 -3.866846 17.698318
RightToeBase 12.633620 -0.000000 -0.000000
77
root -0.304320 32.378207 1.653419 38.161822 4.817196 0.276382
Spine -39.418528 -9.815228 2.377625
Head 0.816610 -4.503311 1.535233
LeftShoulder -13.550764 38.479338 18.563171
LeftArm 68.512779 -10.184199 -78.048517
LeftForeArm -3.391891 0.000000 76.828810
LeftHand -55.305615 -0.000000 15.552915
LeftHandThumb1 -26.253704 0.000000 33.147579
RightShoulder -17.577560 -48.577653 -11.756753
RightArm 50.413107 6.317709 78.417391
RightForeArm 27.850340 -0.000000 6.327938
RightHand 17.122264 -0.000000 -4.840974
RightHandThumb1 -24.326973 -0.000000 -32.862282
LeftUpLeg -34.308573 -3.069841 1.670579
LeftLeg 0.820395 -0.000000 -0.000000
LeftFoot -5.514449 2.321798 1.851913
LeftToeBase 1.704254 -0.000000 -0.000000
RightUpLeg -30.709323 -12.452943 2.485116
RightLeg -5.045252 -0.000000 0.000000
RightFoot -5.252368 -3.798063 17.834993
RightToeBase 12.583591 -0.000000 -0.000000
78
root -0.266316 32.385861 1.627418 38.298496 4.831591 0.158066
Spine -39.317545 -9.926766 2.404016
Head 0.416707 -4.576477 1.954994
LeftShoulder -13.424186 38.432004 18.752579
LeftArm 68.483269 -9.804400 -77.945732
LeftForeArm -3.496432 0.000000 77.189501
LeftHand -54.834868 0.000000 15.771888
LeftHandThumb1 -26.253704 0.000000 33.147579
RightShoulder -17.717852 -48.714859 -11.293982
RightArm 50.323436 5.948142 79.272734
RightForeArm 28.317031 0.000000 6.273629
RightHand 17.094441 0.000000 -4.547389
RightHandThumb1 -24.326973 -0.000000 -32.862282
LeftUpLeg -34.580017 -3.119799 1.769555
LeftLeg 0.982385 -0.000000 -0.000000
LeftFoot -5.536531 2.422800 1.920251
LeftToeBase 1.696632 -0.000000 -0.000000
RightUpLeg -30.977497 -12.569313 2.649669
RightLeg -4.924926 -0.000000 0.000000
RightFoot -5.053144 -3.600539 18.053985
RightToeBase 12.494602 -0.000000 -0.000000
79
root -0.226273 32.393522 1.601945 38.479318 4.856221 0.060476
Spine -39.262558 -10.059117 2.424140
Head 0.023256 -4.641936 2.389224
LeftShoulder -13.292779 38.412210 18.914871
LeftArm 68.508407 -9.569450 -78.060732
LeftForeArm -3.879679 -0.000000 77.997103
LeftHand -53.949542 -0.000000 16.876825
LeftHandThumb1 -26.253704 0.000000 33.147579
RightShoulder -17.900712 -48.800517 -10.823383
RightArm 50.206558 5.414458 79.912799
RightForeArm 29.041468 0.000000 6.103586
RightHand 17.165492 -0.000000 -4.311873
RightHandThumb1 -24.326973 -0.000000 -32.862282
LeftUpLeg -34.900920 -3.191199 1.855689
LeftLeg 1.156285 -0.000000 -0.000000
LeftFoot -5.572565 2.538712 1.997323
LeftToeBase 1.764767 -0.000000 -0.000000
RightUpLeg -31.247878 -12.660474 2.770490
RightLeg -4.875543 -0.000000 0.000000
RightFoot -4.823636 -3.449042 18.250707
RightToeBase 12.352056 -0.000000 -0.000000
80
root -0.186717 32.402122 1.577369 38.609549 4.850183 -0.084659
Spine -39.161253 -10.183464 2.474809
Head -0.350888 -4.689205 2.856744
LeftShoulder -13.151175 38.287640 19.111109
LeftArm 68.520100 -9.337562 -78.536922
LeftForeArm -2.355169 -0.000000 78.931212
LeftHand -54.383650 -0.000000 16.569281
LeftHandThumb1 -26.253704 0.000000 33.147579
RightShoulder -18.036221 -48.871747 -10.390043
RightArm 50.113021 4.870661 80.537729
RightForeArm 29.854100 -0.000000 5.869647
RightHand 17.098023 -0.000000 -4.116206
RightHandThumb1 -24.326973 -0.000000 -32.862282
LeftUpLeg -35.177193 -3.167194 1.927293
LeftLeg 1.350654 -0.000000 -0.000000
LeftFoot -5.615425 2.607001 2.122951
LeftToeBase 1.750432 -0.000000 -0.000000
RightUpLeg -31.461526 -12.741295 2.913426
RightLeg -4.852197 -0.000000 0.000000
RightFoot -4.506857 -3.202682 18.394820
RightToeBase 12.220458 -0.000000 -0.000000
81
root -0.143362 32.412770 1.547242 38.847754 4.819712 -0.194215
Spine -39.168003 -10.327775 2.524191
Head -0.710786 -4.720578 3.303445
LeftShoulder -13.070211 38.239554 19.241937
LeftArm 68.647030 -9.136970 -78.898756
LeftForeArm -1.409952 -0.000000 79.746433
LeftHand -54.917752 -0.000000 16.161167
LeftHandThumb1 -26.253704 0.000000 33.147579
RightShoulder -18.126493 -48.921277 -10.033464
RightArm 50.009663 4.305851 81.150798
RightForeArm 30.559275 -0.000000 5.546234
RightHand 17.064163 -0.000000 -3.940211
RightHandThumb1 -24.326973 -0.000000 -32.862282
LeftUpLeg -35.535582 -3.296247 2.059063
LeftLeg 1.469429 -0.000000 -0.000000
LeftFoot -5.587328 2.840452 2.165033
LeftToeBase 1.758983 -0.000000 -0.000000
RightUpLeg -31.800681 -12.766448 2.994019
RightLeg -4.803227 -0.000000 0.000000
RightFoot -4.215605 -3.016923 18.556693
RightToeBase 12.110948 -0.000000 -0.000000
